<svg data-v-423bf9ae="" xmlns="http://www.w3.org/2000/svg" viewBox="0 0 427.3255827492672 60" class="font"><!----><!----><defs data-v-423bf9ae=""><linearGradient data-v-423bf9ae="" gradientTransform="rotate(25)" id="061dd931-8b99-4b3e-a4c5-c37899a7322a" x1="0%" y1="0%" x2="100%" y2="0%"><stop data-v-423bf9ae="" offset="0%" style="stop-color: rgb(40, 139, 88); stop-opacity: 1;"></stop><stop data-v-423bf9ae="" offset="100%" style="stop-color: rgb(21, 34, 241); stop-opacity: 1;"></stop></linearGradient></defs><g data-v-423bf9ae="" id="6ef7b90e-b239-4232-b745-3a141ffef3fa" fill="url(#061dd931-8b99-4b3e-a4c5-c37899a7322a)" transform="matrix(4.983388900756836,0,0,4.983388900756836,-3.0897140502929688,-11.461793899536133)"><path d="M8.13 8.89L10.93 8.89L10.93 8.89Q10.87 8.91 10.58 9.14L10.58 9.14L10.58 9.14Q10.28 9.37 10.08 9.54L10.08 9.54L10.08 11.92L10.08 11.92Q9.29 12.93 7.85 13.63L7.85 13.63L7.85 13.63Q6.41 14.34 5.24 14.34L5.24 14.34L5.24 14.34Q4.08 14.34 3.24 14.00L3.24 14.00L3.24 14.00Q2.41 13.65 1.82 13.04L1.82 13.04L1.82 13.04Q0.62 11.79 0.62 9.73L0.62 9.73L0.62 9.73Q0.62 8.21 1.18 7.26L1.18 7.26L1.18 7.26Q2.00 5.81 3.69 4.83L3.69 4.83L3.69 4.83Q5.38 3.85 7.06 3.85L7.06 3.85L7.06 3.85Q8.22 3.85 9.39 4.20L9.39 4.20L9.39 4.20Q9.86 4.34 10.17 4.54L10.17 4.54L10.17 4.54Q10.23 4.59 10.23 4.64L10.23 4.64L10.23 4.64Q10.23 4.70 10.12 4.80L10.12 4.80L10.12 4.80Q10.01 4.89 9.85 5.02L9.85 5.02L9.85 5.02Q9.68 5.15 9.48 5.28L9.48 5.28L9.48 5.28Q9.28 5.42 9.11 5.54L9.11 5.54L9.11 5.54Q8.74 5.78 8.63 5.83L8.63 5.83L8.63 5.83Q8.63 5.81 8.67 5.78L8.67 5.78L8.67 5.78Q8.72 5.74 8.76 5.70L8.76 5.70L8.76 5.70Q8.88 5.59 8.88 5.52L8.88 5.52L8.88 5.52Q8.88 5.26 7.94 5.02L7.94 5.02L7.94 5.02Q6.95 4.77 5.82 4.77L5.82 4.77L5.82 4.77Q4.69 4.77 3.99 5.04L3.99 5.04L3.99 5.04Q3.28 5.32 2.83 5.84L2.83 5.84L2.83 5.84Q1.96 6.85 1.96 8.85L1.96 8.85L1.96 8.85Q1.96 10.78 3.11 12.06L3.11 12.06L3.11 12.06Q4.31 13.40 6.21 13.40L6.21 13.40L6.21 13.40Q7.36 13.40 8.24 13.10L8.24 13.10L8.24 13.10Q8.57 12.98 8.77 12.80L8.77 12.80L8.77 9.83L6.81 9.83L7.07 9.61L7.07 9.61Q7.95 8.89 8.13 8.89L8.13 8.89ZM13.49 10.53L13.49 12.59L13.49 12.59Q13.49 13.28 13.88 13.28L13.88 13.28L13.88 13.28Q14.02 13.28 14.30 13.16L14.30 13.16L14.30 13.16Q14.03 13.75 13.50 14.05L13.50 14.05L13.50 14.05Q13.23 14.21 12.92 14.19L12.92 14.19L12.92 14.19Q12.61 14.18 12.48 14.03L12.48 14.03L12.48 14.03Q12.35 13.88 12.27 13.67L12.27 13.67L12.27 13.67Q12.16 13.33 12.16 12.80L12.16 12.80L12.16 5.00L12.16 5.00Q12.16 4.27 11.91 4.03L11.91 4.03L11.91 4.03Q11.79 3.92 11.61 3.92L11.61 3.92L11.61 3.92Q11.32 3.92 10.97 4.02L10.97 4.02L10.97 4.02Q11.81 3.36 13.49 2.30L13.49 2.30L13.49 8.57L13.49 8.57Q14.34 7.82 15.24 7.55L15.24 7.55L15.24 7.55Q15.57 7.44 15.87 7.44L15.87 7.44L15.87 7.44Q16.18 7.44 16.46 7.54L16.46 7.54L16.46 7.54Q16.73 7.64 16.95 7.82L16.95 7.82L16.95 7.82Q17.44 8.22 17.44 8.83L17.44 8.83L17.44 12.30L17.44 12.30Q17.44 13.21 17.88 13.30L17.88 13.30L17.88 13.30Q18.00 13.33 18.14 13.33L18.14 13.33L18.14 13.33Q18.35 13.33 18.73 13.16L18.73 13.16L18.73 13.16Q18.16 13.88 17.41 14.11L17.41 14.11L17.41 14.11Q17.15 14.19 16.85 14.19L16.85 14.19L16.85 14.19Q16.56 14.19 16.39 14.05L16.39 14.05L16.39 14.05Q16.23 13.90 16.17 13.69L16.17 13.69L16.17 13.69Q16.11 13.47 16.11 13.21L16.11 13.21L16.11 10.14L16.11 10.14Q16.11 9.10 15.78 8.74L15.78 8.74L15.78 8.74Q15.49 8.39 14.70 8.39L14.70 8.39L14.70 8.39Q13.64 8.39 13.51 9.84L13.51 9.84L13.51 9.84Q13.49 10.21 13.49 10.53L13.49 10.53ZM25.01 8.18L25.01 8.18L25.01 8.18Q25.36 8.57 25.56 9.08L25.56 9.08L25.56 9.08Q25.75 9.59 25.75 10.10L25.75 10.10L25.75 10.10Q25.75 10.62 25.60 11.10L25.60 11.10L25.60 11.10Q25.45 11.59 25.18 12.04L25.18 12.04L25.18 12.04Q24.91 12.50 24.54 12.89L24.54 12.89L24.54 12.89Q24.18 13.28 23.74 13.58L23.74 13.58L23.74 13.58Q22.81 14.20 21.86 14.20L21.86 14.20L21.86 14.20Q20.75 14.20 19.97 13.33L19.97 13.33L19.97 13.33Q19.21 12.50 19.21 11.38L19.21 11.38L19.21 11.38Q19.21 10.42 19.79 9.45L19.79 9.45L19.79 9.45Q20.66 7.99 22.16 7.48L22.16 7.48L22.16 7.48Q22.63 7.31 23.17 7.31L23.17 7.31L23.17 7.31Q23.70 7.31 24.18 7.54L24.18 7.54L24.18 7.54Q24.66 7.78 25.01 8.18ZM21.78 8.22L21.78 8.22L21.78 8.22Q21.10 8.22 20.78 8.89L20.78 8.89L20.78 8.89Q20.54 9.41 20.54 10.06L20.54 10.06L20.54 10.06Q20.54 10.72 20.71 11.28L20.71 11.28L20.71 11.28Q20.88 11.85 21.23 12.29L21.23 12.29L21.23 12.29Q21.98 13.29 23.18 13.29L23.18 13.29L23.18 13.29Q23.88 13.29 24.19 12.59L24.19 12.59L24.19 12.59Q24.42 12.07 24.42 11.40L24.42 11.40L24.42 11.40Q24.42 10.08 23.68 9.15L23.68 9.15L23.68 9.15Q22.95 8.22 21.78 8.22ZM29.74 8.78L29.74 8.78L29.74 8.78Q29.87 8.68 29.87 8.57L29.87 8.57L29.87 8.57Q29.87 8.46 29.74 8.40L29.74 8.40L29.74 8.40Q29.61 8.34 29.44 8.31L29.44 8.31L29.44 8.31Q29.18 8.25 28.95 8.25L28.95 8.25L28.95 8.25Q28.72 8.25 28.59 8.27L28.59 8.27L28.59 8.27Q28.46 8.30 28.38 8.36L28.38 8.36L28.38 8.36Q28.18 8.49 28.18 8.82L28.18 8.82L28.18 8.82Q28.18 9.15 28.33 9.35L28.33 9.35L28.33 9.35Q28.47 9.56 28.71 9.71L28.71 9.71L28.71 9.71Q28.94 9.85 29.24 9.95L29.24 9.95L29.24 9.95Q29.54 10.04 29.86 10.13L29.86 10.13L29.86 10.13Q30.17 10.23 30.47 10.34L30.47 10.34L30.47 10.34Q30.77 10.45 31.00 10.62L31.00 10.62L31.00 10.62Q31.53 11.01 31.53 11.68L31.53 11.68L31.53 11.68Q31.53 12.34 30.89 12.97L30.89 12.97L30.89 12.97Q30.35 13.51 29.47 13.89L29.47 13.89L29.47 13.89Q28.65 14.25 28.01 14.25L28.01 14.25L28.01 14.25Q27.23 14.25 26.76 13.92L26.76 13.92L26.76 13.92Q26.58 13.79 26.58 13.60L26.58 13.60L26.58 13.60Q26.58 13.41 26.76 13.24L26.76 13.24L26.76 13.24Q26.94 13.08 27.18 12.94L27.18 12.94L27.18 12.94Q27.42 12.80 27.66 12.68L27.66 12.68L27.66 12.68Q27.90 12.55 28.02 12.41L28.02 12.41L28.02 12.41Q27.90 12.54 27.90 12.71L27.90 12.71L27.90 12.71Q27.90 12.89 28.09 13.01L28.09 13.01L28.09 13.01Q28.28 13.13 28.54 13.19L28.54 13.19L28.54 13.19Q28.99 13.30 29.41 13.30L29.41 13.30L29.41 13.30Q29.83 13.30 30.01 13.15L30.01 13.15L30.01 13.15Q30.20 13.00 30.20 12.63L30.20 12.63L30.20 12.63Q30.20 12.27 30.06 12.04L30.06 12.04L30.06 12.04Q29.91 11.81 29.68 11.65L29.68 11.65L29.68 11.65Q29.45 11.48 29.15 11.37L29.15 11.37L29.15 11.37Q28.85 11.26 28.54 11.15L28.54 11.15L28.54 11.15Q28.23 11.05 27.92 10.94L27.92 10.94L27.92 10.94Q27.62 10.83 27.39 10.67L27.39 10.67L27.39 10.67Q26.87 10.32 26.87 9.76L26.87 9.76L26.87 9.76Q26.87 9.23 27.50 8.62L27.50 8.62L27.50 8.62Q28.05 8.10 28.64 7.81L28.64 7.81L28.64 7.81Q29.66 7.31 30.18 7.31L30.18 7.31L30.18 7.31Q30.72 7.31 30.96 7.43L30.96 7.43L30.96 7.43Q31.20 7.55 31.20 7.63L31.20 7.63L31.20 7.63Q31.20 7.72 31.14 7.79L31.14 7.79L31.14 7.79Q31.09 7.85 31.01 7.91L31.01 7.91L31.01 7.91Q30.93 7.97 30.85 8.02L30.85 8.02L30.85 8.02Q30.77 8.07 30.62 8.16L30.62 8.16L30.62 8.16Q30.47 8.26 30.21 8.42L30.21 8.42L30.21 8.42Q29.96 8.58 29.74 8.78ZM34.32 10.53L34.32 12.59L34.32 12.59Q34.32 13.28 34.71 13.28L34.71 13.28L34.71 13.28Q34.85 13.28 35.13 13.16L35.13 13.16L35.13 13.16Q34.86 13.75 34.33 14.05L34.33 14.05L34.33 14.05Q34.06 14.21 33.75 14.19L33.75 14.19L33.75 14.19Q33.44 14.18 33.31 14.03L33.31 14.03L33.31 14.03Q33.17 13.88 33.10 13.67L33.10 13.67L33.10 13.67Q32.99 13.33 32.99 12.80L32.99 12.80L32.99 5.00L32.99 5.00Q32.99 4.27 32.74 4.03L32.74 4.03L32.74 4.03Q32.62 3.92 32.44 3.92L32.44 3.92L32.44 3.92Q32.15 3.92 31.80 4.02L31.80 4.02L31.80 4.02Q32.63 3.36 34.32 2.30L34.32 2.30L34.32 8.57L34.32 8.57Q35.17 7.82 36.07 7.55L36.07 7.55L36.07 7.55Q36.39 7.44 36.70 7.44L36.70 7.44L36.70 7.44Q37.01 7.44 37.29 7.54L37.29 7.54L37.29 7.54Q37.56 7.64 37.78 7.82L37.78 7.82L37.78 7.82Q38.27 8.22 38.27 8.83L38.27 8.83L38.27 12.30L38.27 12.30Q38.27 13.21 38.71 13.30L38.71 13.30L38.71 13.30Q38.83 13.33 38.96 13.33L38.96 13.33L38.96 13.33Q39.18 13.33 39.56 13.16L39.56 13.16L39.56 13.16Q38.99 13.88 38.24 14.11L38.24 14.11L38.24 14.11Q37.98 14.19 37.68 14.19L37.68 14.19L37.68 14.19Q37.39 14.19 37.22 14.05L37.22 14.05L37.22 14.05Q37.06 13.90 37.00 13.69L37.00 13.69L37.00 13.69Q36.93 13.47 36.93 13.21L36.93 13.21L36.93 10.14L36.93 10.14Q36.93 9.10 36.61 8.74L36.61 8.74L36.61 8.74Q36.32 8.39 35.53 8.39L35.53 8.39L35.53 8.39Q34.47 8.39 34.34 9.84L34.34 9.84L34.34 9.84Q34.32 10.21 34.32 10.53L34.32 10.53ZM41.54 12.22L42.25 13.36L40.93 14.29L40.21 13.15L41.54 12.22ZM47.76 8.79L47.76 8.79L47.76 8.79Q47.89 8.65 47.89 8.59L47.89 8.59L47.89 8.59Q47.89 8.52 47.80 8.46L47.80 8.46L47.80 8.46Q47.71 8.39 47.56 8.34L47.56 8.34L47.56 8.34Q47.41 8.29 47.24 8.25L47.24 8.25L47.24 8.25Q47.06 8.20 46.89 8.18L46.89 8.18L46.89 8.18Q46.55 8.11 46.22 8.11L46.22 8.11L46.22 8.11Q45.90 8.11 45.57 8.30L45.57 8.30L45.57 8.30Q45.24 8.50 45.04 8.82L45.04 8.82L45.04 8.82Q44.69 9.39 44.69 10.21L44.69 10.21L44.69 10.21Q44.69 11.03 44.87 11.56L44.87 11.56L44.87 11.56Q45.05 12.09 45.39 12.47L45.39 12.47L45.39 12.47Q46.11 13.26 47.42 13.26L47.42 13.26L47.42 13.26Q48.25 13.26 48.99 12.85L48.99 12.85L48.99 12.85Q48.13 13.78 46.81 14.10L46.81 14.10L46.81 14.10Q46.39 14.19 45.88 14.19L45.88 14.19L45.88 14.19Q45.38 14.19 44.88 13.98L44.88 13.98L44.88 13.98Q44.39 13.77 44.05 13.39L44.05 13.39L44.05 13.39Q43.35 12.62 43.35 11.39L43.35 11.39L43.35 11.39Q43.35 10.39 44.04 9.38L44.04 9.38L44.04 9.38Q45.06 7.90 46.72 7.37L46.72 7.37L46.72 7.37Q47.24 7.20 47.67 7.20L47.67 7.20L47.67 7.20Q48.67 7.20 49.16 7.57L49.16 7.57L49.16 7.57Q49.21 7.61 49.21 7.68L49.21 7.68L49.21 7.68Q49.21 7.92 48.21 8.57L48.21 8.57L48.21 8.57Q47.86 8.79 47.76 8.79ZM55.57 8.18L55.57 8.18L55.57 8.18Q55.92 8.57 56.11 9.08L56.11 9.08L56.11 9.08Q56.31 9.59 56.31 10.10L56.31 10.10L56.31 10.10Q56.31 10.62 56.16 11.10L56.16 11.10L56.16 11.10Q56.01 11.59 55.74 12.04L55.74 12.04L55.74 12.04Q55.47 12.50 55.10 12.89L55.10 12.89L55.10 12.89Q54.74 13.28 54.30 13.58L54.30 13.58L54.30 13.58Q53.37 14.20 52.42 14.20L52.42 14.20L52.42 14.20Q51.30 14.20 50.52 13.33L50.52 13.33L50.52 13.33Q49.77 12.50 49.77 11.38L49.77 11.38L49.77 11.38Q49.77 10.42 50.35 9.45L50.35 9.45L50.35 9.45Q51.21 7.99 52.71 7.48L52.71 7.48L52.71 7.48Q53.19 7.31 53.72 7.31L53.72 7.31L53.72 7.31Q54.26 7.31 54.74 7.54L54.74 7.54L54.74 7.54Q55.22 7.78 55.57 8.18ZM52.34 8.22L52.34 8.22L52.34 8.22Q51.65 8.22 51.34 8.89L51.34 8.89L51.34 8.89Q51.09 9.41 51.09 10.06L51.09 10.06L51.09 10.06Q51.09 10.72 51.27 11.28L51.27 11.28L51.27 11.28Q51.44 11.85 51.78 12.29L51.78 12.29L51.78 12.29Q52.54 13.29 53.74 13.29L53.74 13.29L53.74 13.29Q54.43 13.29 54.75 12.59L54.75 12.59L54.75 12.59Q54.97 12.07 54.97 11.40L54.97 11.40L54.97 11.40Q54.97 10.08 54.24 9.15L54.24 9.15L54.24 9.15Q53.50 8.22 52.34 8.22ZM62.84 8.61L62.84 8.61L62.84 8.61Q64.35 7.44 65.15 7.44L65.15 7.44L65.15 7.44Q65.68 7.44 65.99 7.89L65.99 7.89L65.99 7.89Q66.25 8.26 66.25 8.83L66.25 8.83L66.25 12.09L66.25 12.09Q66.25 12.71 66.33 12.90L66.33 12.90L66.33 12.90Q66.49 13.26 67.03 13.26L67.03 13.26L67.03 13.26Q67.30 13.26 67.55 13.16L67.55 13.16L67.55 13.16Q66.94 13.69 66.71 13.84L66.71 13.84L66.71 13.84Q66.17 14.18 65.77 14.18L65.77 14.18L65.77 14.18Q65.37 14.18 65.20 14.04L65.20 14.04L65.20 14.04Q65.04 13.90 64.97 13.69L64.97 13.69L64.97 13.69Q64.89 13.45 64.89 12.70L64.89 12.70L64.89 10.12L64.89 10.12Q64.89 9.37 64.75 9.05L64.75 9.05L64.75 9.05Q64.61 8.72 64.41 8.56L64.41 8.56L64.41 8.56Q64.20 8.39 63.93 8.39L63.93 8.39L63.93 8.39Q63.65 8.39 63.50 8.48L63.50 8.48L63.50 8.48Q63.35 8.56 63.24 8.69L63.24 8.69L63.24 8.69Q62.83 9.17 62.83 10.26L62.83 10.26L62.83 12.20L62.83 12.20Q62.83 12.71 62.94 12.90L62.94 12.90L62.94 12.90Q63.14 13.26 63.62 13.26L63.62 13.26L63.62 13.26Q63.90 13.26 64.14 13.16L64.14 13.16L64.14 13.16Q63.53 13.69 63.30 13.84L63.30 13.84L63.30 13.84Q62.77 14.18 62.37 14.18L62.37 14.18L62.37 14.18Q61.97 14.18 61.80 14.04L61.80 14.04L61.80 14.04Q61.63 13.90 61.56 13.69L61.56 13.69L61.56 13.69Q61.49 13.45 61.49 12.70L61.49 12.70L61.49 10.12L61.49 10.12Q61.49 9.37 61.35 9.05L61.35 9.05L61.35 9.05Q61.21 8.72 61.00 8.56L61.00 8.56L61.00 8.56Q60.80 8.39 60.51 8.39L60.51 8.39L60.51 8.39Q60.22 8.39 60.07 8.50L60.07 8.50L60.07 8.50Q59.91 8.61 59.80 8.79L59.80 8.79L59.80 8.79Q59.68 8.98 59.62 9.20L59.62 9.20L59.62 9.20Q59.55 9.43 59.51 9.67L59.51 9.67L59.51 9.67Q59.45 10.08 59.45 10.53L59.45 10.53L59.45 12.64L59.45 12.64Q59.45 13.08 59.71 13.23L59.71 13.23L59.71 13.23Q59.81 13.30 59.95 13.30L59.95 13.30L59.95 13.30Q60.09 13.30 60.25 13.23L60.25 13.23L60.25 13.23Q59.47 13.90 59.14 14.06L59.14 14.06L59.14 14.06Q58.82 14.22 58.63 14.22L58.63 14.22L58.63 14.22Q58.11 14.22 58.11 13.62L58.11 13.62L58.11 9.68L58.11 9.68Q58.11 9.44 58.12 9.20L58.12 9.20L58.12 9.20Q58.13 8.96 58.07 8.76L58.07 8.76L58.07 8.76Q57.94 8.33 57.33 8.33L57.33 8.33L57.33 8.33Q57.03 8.33 56.74 8.44L56.74 8.44L56.74 8.44Q56.92 8.38 57.20 8.12L57.20 8.12L57.20 8.12Q57.74 7.63 57.96 7.55L57.96 7.55L57.96 7.55Q58.39 7.39 58.69 7.39L58.69 7.39L58.69 7.39Q58.99 7.39 59.14 7.50L59.14 7.50L59.14 7.50Q59.29 7.61 59.36 7.78L59.36 7.78L59.36 7.78Q59.45 7.99 59.45 8.60L59.45 8.60L59.45 8.60Q60.33 7.90 61.17 7.57L61.17 7.57L61.17 7.57Q61.48 7.44 61.74 7.44L61.74 7.44L61.74 7.44Q61.99 7.44 62.18 7.54L62.18 7.54L62.18 7.54Q62.38 7.64 62.51 7.80L62.51 7.80L62.51 7.80Q62.79 8.13 62.84 8.61ZM69.49 12.22L70.21 13.36L68.89 14.29L68.17 13.15L69.49 12.22ZM73.12 2.41L73.12 8.57L73.12 8.57Q74.50 7.37 75.64 7.37L75.64 7.37L75.64 7.37Q76.80 7.37 77.44 8.29L77.44 8.29L77.44 8.29Q78.00 9.08 78.00 10.27L78.00 10.27L78.00 10.27Q78.00 11.19 77.40 12.14L77.40 12.14L77.40 12.14Q76.82 13.06 75.94 13.67L75.94 13.67L75.94 13.67Q75.00 14.30 74.08 14.30L74.08 14.30L74.08 14.30Q73.12 14.30 72.45 13.64L72.45 13.64L72.45 13.64Q71.80 12.98 71.80 12.01L71.80 12.01L71.80 5.24L71.80 5.24Q71.80 4.66 71.74 4.46L71.74 4.46L71.74 4.46Q71.59 4.03 71.18 4.03L71.18 4.03L71.18 4.03Q71.06 4.03 70.89 4.07L70.89 4.07L70.89 4.07Q70.72 4.11 70.61 4.13L70.61 4.13L70.61 4.13Q71.29 3.60 71.63 3.38L71.63 3.38L71.63 3.38Q71.97 3.15 72.34 2.89L72.34 2.89L72.34 2.89Q72.72 2.63 73.12 2.41L73.12 2.41ZM76.62 12.09L76.62 12.09L76.62 12.09Q76.69 11.68 76.69 11.18L76.69 11.18L76.69 11.18Q76.69 10.68 76.56 10.15L76.56 10.15L76.56 10.15Q76.43 9.63 76.16 9.21L76.16 9.21L76.16 9.21Q75.54 8.29 74.42 8.29L74.42 8.29L74.42 8.29Q73.83 8.29 73.46 8.85L73.46 8.85L73.46 8.85Q73.12 9.36 73.12 10.00L73.12 10.00L73.12 11.69L73.12 11.69Q73.12 12.46 73.68 12.95L73.68 12.95L73.68 12.95Q74.22 13.44 75.05 13.44L75.05 13.44L75.05 13.44Q76.39 13.44 76.62 12.09ZM81.29 7.86L81.29 7.86Q81.76 7.59 82.29 7.45L82.29 7.45L82.29 7.45Q82.82 7.30 83.18 7.30L83.18 7.30L83.18 7.30Q83.54 7.30 83.82 7.35L83.82 7.35L83.82 5.11L83.82 5.11Q83.82 4.38 83.55 4.14L83.55 4.14L83.55 4.14Q83.43 4.03 83.25 4.03L83.25 4.03L83.25 4.03Q83.04 4.03 82.63 4.13L82.63 4.13L82.63 4.13Q84.34 2.82 85.14 2.41L85.14 2.41L85.14 12.19L85.14 12.19Q85.14 12.74 85.26 12.92L85.26 12.92L85.26 12.92Q85.46 13.26 85.97 13.26L85.97 13.26L85.97 13.26Q86.17 13.26 86.37 13.22L86.37 13.22L86.37 13.22Q86.17 13.38 85.98 13.55L85.98 13.55L85.98 13.55Q85.78 13.72 85.57 13.86L85.57 13.86L85.57 13.86Q85.09 14.19 84.72 14.19L84.72 14.19L84.72 14.19Q84.35 14.19 84.19 14.12L84.19 14.12L84.19 14.12Q84.03 14.05 83.94 13.92L83.94 13.92L83.94 13.92Q83.80 13.73 83.80 13.18L83.80 13.18L83.80 13.18Q82.40 14.22 81.55 14.22L81.55 14.22L81.55 14.22Q80.30 14.22 79.64 13.38L79.64 13.38L79.64 13.38Q79.02 12.62 79.02 11.33L79.02 11.33L79.02 11.33Q79.02 10.28 79.68 9.32L79.68 9.32L79.68 9.32Q80.29 8.42 81.29 7.86L81.29 7.86ZM83.82 12.60L83.82 9.21L83.82 9.21Q83.51 8.72 83.02 8.47L83.02 8.47L83.02 8.47Q82.52 8.22 81.99 8.22L81.99 8.22L81.99 8.22Q81.46 8.22 81.14 8.40L81.14 8.40L81.14 8.40Q80.83 8.58 80.65 8.88L80.65 8.88L80.65 8.88Q80.34 9.40 80.34 10.18L80.34 10.18L80.34 10.18Q80.34 10.96 80.48 11.49L80.48 11.49L80.48 11.49Q80.62 12.02 80.91 12.43L80.91 12.43L80.91 12.43Q81.55 13.30 82.79 13.30L82.79 13.30L82.79 13.30Q83.06 13.30 83.32 13.14L83.32 13.14L83.32 13.14Q83.82 12.85 83.82 12.60L83.82 12.60Z"></path></g><!----><!----></svg>